# xmcd CD database file
#
# Track frame offsets:
#	150
#	13297
#	30367
#	46292
#	64700
#	84117
#	99910
#	113597
#	128687
#	140452
#	157867
#	176575
#	195577
#
# Disc length: 2839 seconds
#
# Revision: 2
# Processed by: cddbd v1.5.2PL0 Copyright (c) Steve Scherf et al.
# Submitted via: CDex 1.70beta2
#
DISCID=940b150d
DTITLE=Brooks and Dunn - Tight Rope
DYEAR=1999
DGENRE=Country
TTITLE0=Goin' Under Gettin' Over You
TTITLE1=Missing You
TTITLE2=Temptation #9
TTITLE3=Hurt Train
TTITLE4=Can't Stop My Heart
TTITLE5=Too Far This Time
TTITLE6=You'll always Be Loved By Me
TTITLE7=I Love You More
TTITLE8=Beer Thirty
TTITLE9=Don't Look Back Now
TTITLE10=All Out Of Love
TTITLE11=The Trouble With Angels
TTITLE12=Texas And Norma Jean
EXTD=YEAR: 1999
EXTT0=
EXTT1=
EXTT2=
EXTT3=
EXTT4=
EXTT5=
EXTT6=
EXTT7=
EXTT8=
EXTT9=
EXTT10=
EXTT11=
EXTT12=
PLAYORDER=
